<?xml version="1.0" standalone="no"?>
<!DOCTYPE svg PUBLIC "-//W3C//DTD SVG 20010904//EN"
 "http://www.w3.org/TR/2001/REC-SVG-20010904/DTD/svg10.dtd">
<svg version="1.0" xmlns="http://www.w3.org/2000/svg"
 width="335.000000pt" height="105.000000pt" viewBox="0 0 335.000000 105.000000"
 preserveAspectRatio="xMidYMid meet">

<g transform="translate(0.000000,105.000000) scale(0.100000,-0.100000)"
fill="#000000" stroke="none">
<path d="M1748 1004 c-15 -8 -32 -23 -38 -33 -14 -27 -14 -224 -1 -250 32 -60
125 -68 169 -14 18 22 22 38 20 78 l-3 50 -55 0 c-50 0 -55 -2 -58 -23 -3 -18
2 -23 28 -28 34 -7 37 -29 8 -48 -13 -8 -23 -8 -35 0 -15 9 -19 29 -21 107 -2
87 -1 97 17 106 28 16 50 4 59 -33 6 -24 14 -31 33 -31 20 0 25 6 27 33 3 26
-3 39 -31 67 -39 39 -73 44 -119 19z"/>
<path d="M2898 1004 c-42 -22 -48 -43 -48 -164 0 -111 0 -112 30 -142 28 -28
36 -30 78 -25 65 7 93 43 90 112 l-3 50 -55 0 c-50 0 -55 -2 -58 -23 -3 -18 2
-23 28 -28 34 -7 37 -29 8 -48 -13 -8 -23 -8 -35 0 -15 9 -19 29 -21 107 -2
87 -1 97 17 106 28 16 50 4 59 -33 6 -24 14 -31 33 -31 20 0 25 6 27 33 3 26
-3 39 -31 67 -39 39 -73 44 -119 19z"/>
<path d="M60 535 l0 -475 775 0 775 0 0 475 0 475 -775 0 -775 0 0 -475z m605
324 c56 -16 142 -73 165 -111 26 -42 25 -81 -1 -128 l-22 -38 22 -28 c18 -22
21 -40 21 -113 l1 -86 33 80 c18 44 58 146 90 226 67 172 89 199 164 207 89 8
124 -24 179 -163 167 -422 166 -415 103 -477 -38 -39 -42 -40 -91 -36 -62 6
-98 37 -123 108 -18 49 -20 51 -53 48 -32 -3 -36 -8 -56 -58 -15 -37 -33 -62
-56 -77 -80 -54 -190 -2 -191 91 l0 28 -40 -41 c-22 -23 -66 -53 -98 -68 -49
-23 -70 -27 -152 -28 -84 0 -102 3 -157 29 -69 31 -128 88 -165 158 -19 37
-23 58 -23 148 0 91 3 111 23 150 43 82 121 149 205 176 52 16 169 18 222 3z"/>
<path d="M2003 988 c-5 -13 -29 -83 -52 -156 -33 -105 -40 -137 -30 -148 17
-20 202 -20 218 0 10 12 2 47 -36 168 -40 126 -52 154 -69 156 -13 2 -24 -5
-31 -20z m51 -186 c9 -32 16 -61 16 -65 0 -4 -18 -7 -40 -7 -22 0 -40 3 -40 7
0 19 34 123 40 123 4 0 15 -26 24 -58z"/>
<path d="M2170 995 c-10 -12 -6 -26 19 -74 37 -72 38 -81 7 -81 -30 0 -36 -16
-36 -90 0 -60 16 -88 45 -76 11 4 15 20 15 56 0 46 2 51 21 48 13 -2 31 -22
48 -53 48 -87 96 -54 51 35 -21 42 -21 42 -2 64 27 28 36 84 20 116 -22 41
-75 70 -128 70 -30 0 -52 -6 -60 -15z m125 -71 c18 -18 17 -45 -2 -51 -10 -4
-43 44 -43 62 0 11 29 4 45 -11z"/>
<path d="M2410 984 c-6 -14 -10 -79 -10 -144 0 -65 4 -130 10 -144 9 -24 15
-26 66 -26 34 0 67 6 84 17 45 26 62 81 39 125 -8 16 -8 31 2 60 26 78 -29
138 -128 138 -48 0 -54 -3 -63 -26z m121 -53 c33 -27 16 -56 -32 -56 -30 0
-34 3 -37 29 -6 46 29 60 69 27z m0 -131 c41 -23 13 -74 -38 -68 -20 2 -29 9
-31 26 -7 49 22 66 69 42z"/>
<path d="M2703 988 c-5 -13 -29 -83 -52 -156 -33 -105 -40 -137 -30 -148 17
-20 202 -20 218 0 10 12 2 47 -36 168 -40 126 -52 154 -69 156 -13 2 -24 -5
-31 -20z m51 -186 c9 -32 16 -61 16 -65 0 -4 -18 -7 -40 -7 -22 0 -40 3 -40 7
0 19 34 123 40 123 4 0 15 -26 24 -58z"/>
<path d="M3133 989 c-43 -27 -56 -74 -52 -178 4 -79 6 -84 37 -112 30 -27 39
-30 95 -27 59 3 62 4 62 28 0 22 -5 25 -40 28 -77 5 -85 9 -85 47 0 33 1 34
43 37 37 3 42 6 42 28 0 22 -5 25 -42 28 -40 3 -43 5 -43 32 0 35 8 41 74 49
46 5 51 8 51 31 0 23 -4 25 -55 28 -42 2 -63 -3 -87 -19z"/>
<path d="M1856 591 c-20 -22 -157 -450 -158 -495 -2 -50 19 -56 192 -56 212 0
214 2 156 183 -13 39 -40 126 -60 192 -20 66 -44 136 -54 155 -20 41 -50 49
-76 21z m44 -234 c0 -7 14 -54 30 -105 17 -51 30 -97 30 -102 0 -12 -137 -14
-143 -3 -6 12 64 223 74 223 5 0 9 -6 9 -13z"/>
<path d="M2036 594 c-9 -8 -16 -20 -16 -26 0 -34 154 -496 171 -513 18 -18 22
-19 46 -5 21 12 32 34 57 113 28 91 42 114 50 85 62 -205 80 -232 129 -195 17
12 167 472 167 513 0 29 -23 46 -57 42 -27 -3 -30 -10 -76 -153 -27 -82 -51
-157 -54 -165 -6 -19 -24 18 -53 115 -25 82 -34 95 -65 95 -33 0 -51 -26 -80
-122 -14 -48 -30 -90 -34 -92 -4 -3 -29 63 -55 147 -27 84 -53 158 -58 165
-14 17 -53 15 -72 -4z"/>
<path d="M2756 591 c-20 -22 -157 -450 -158 -495 -2 -50 19 -56 192 -56 212 0
214 2 156 183 -13 39 -40 126 -60 192 -20 66 -44 136 -54 155 -20 41 -50 49
-76 21z m44 -234 c0 -7 14 -54 30 -105 17 -51 30 -97 30 -102 0 -12 -137 -14
-143 -3 -6 12 64 223 74 223 5 0 9 -6 9 -13z"/>
<path d="M2937 592 c-9 -10 -17 -24 -17 -31 0 -6 32 -74 70 -150 l70 -138 0
-96 c0 -84 3 -100 20 -117 25 -25 42 -25 63 -2 13 15 17 39 17 112 l0 92 70
139 c39 76 70 149 70 161 0 30 -17 48 -45 48 -30 0 -45 -20 -98 -125 l-44 -89
-54 104 c-45 88 -58 105 -80 108 -15 2 -32 -5 -42 -16z"/>
</g>
</svg>
